<svg xmlns="http://www.w3.org/2000/svg" width="29.969" height="27" viewBox="445.015 28.088 29.969 27"><path d="M474.71 37.435a4.85 4.85 0 0 0-.208-.543c-.702-1.53-2.232-2.326-3.868-2.43-2.523.265-4.334-2.301-6.315-4.215-.887-.858-1.806-1.583-2.836-1.867a7.452 7.452 0 0 0-2.013-.292c-1.496 0-2.727.529-3.822 1.34-1.516 1.12-2.769 2.786-4.103 4.321a24.47 24.47 0 0 1-.854.95c-1.037 1.09-2.336 2.01-3.43 3.013-1.636 1.498-2.813 3.184-1.961 5.912.46 1.48 1.486 2.593 2.616 3.626 1.04.95 2.166 1.835 3.017 2.873 1.256 1.533 2.616 2.833 4.261 3.72.91.49 1.905.854 3.017 1.062 1.961.362 3.866.17 5.645-.43 2.312-.781 4.41-2.256 6.13-4.086a18.933 18.933 0 0 0 2.307-3.01c.366-.595.697-1.204.986-1.818 1.066-2.265 2.254-5.569 1.431-8.126Zm-10.24 10.654a6.275 6.275 0 1 1-8.876-8.873 6.275 6.275 0 0 1 8.877 8.873Z" fill="#fff" fill-rule="evenodd" data-name="Path 78"/></svg>