<svg xmlns="http://www.w3.org/2000/svg" width="11.866" height="15.712" viewBox="330.279 1251.378 11.866 15.712"><g data-name="Path 90"><path d="M342.643 1253.45c0-.88-.694-1.57-1.578-1.57-2.862-.002-5.75-.001-8.704 0a1.563 1.563 0 0 0-1.58 1.585v7.157c0 1.849 0 3.762-.002 5.643 0 .293.065.538.199.75.174.274.44.46.816.57l.02.006h.52l.017-.005c.271-.071.507-.22.766-.48.811-.815 1.638-1.64 2.439-2.44l.71-.709c.292-.293.602-.293.894 0l.58.58c.843.84 1.714 1.71 2.568 2.57.175.175.42.389.766.48l.018.004h.524l.064-.023.084-.03c.542-.181.88-.646.88-1.213 0-4.114.002-8.498 0-12.875Zm-1.26 12.928c-.047.02-.065.016-.157-.082a1.804 1.804 0 0 0-.043-.045l-1.796-1.795-1.366-1.366c-.38-.38-.845-.569-1.31-.569-.463 0-.926.189-1.303.566l-3.174 3.172-.023.024c-.03.029-.056.056-.083.077-.034.026-.064.03-.103.014-.01-.004-.018-.007-.019-.069V1258.188c.002-1.514.003-3.08-.005-4.62-.001-.168.037-.292.113-.37.078-.077.205-.116.379-.116h.002c2.263.004 4.564.003 6.789.002h1.657c.147 0 .255.014.344.081a.298.298 0 0 1 .13.228c.005.067.005.134.005.205v.672c0 3.894 0 7.92-.002 11.881 0 .026.002.053.004.08.008.127-.002.131-.039.147Z" fill="#fff" fill-rule="evenodd"/><path d="M342.643 1253.45c0-.88-.694-1.57-1.578-1.57-2.862-.002-5.75-.001-8.704 0a1.563 1.563 0 0 0-1.58 1.585v7.157c0 1.849 0 3.762-.002 5.643 0 .293.065.538.199.75.174.274.44.46.816.57l.02.006h.52l.017-.005c.271-.071.507-.22.766-.48.811-.815 1.638-1.64 2.439-2.44l.71-.709c.292-.293.602-.293.894 0l.58.58c.843.84 1.714 1.71 2.568 2.57.175.175.42.389.766.48l.018.004h.524l.064-.023.084-.03c.542-.181.88-.646.88-1.213 0-4.114.002-8.498 0-12.875Zm-1.26 12.928c-.047.02-.065.016-.157-.082a1.804 1.804 0 0 0-.043-.045l-1.796-1.795-1.366-1.366c-.38-.38-.845-.569-1.31-.569-.463 0-.926.189-1.303.566l-3.174 3.172-.023.024c-.03.029-.056.056-.083.077-.034.026-.064.03-.103.014-.01-.004-.018-.007-.019-.069V1258.188c.002-1.514.003-3.08-.005-4.62-.001-.168.037-.292.113-.37.078-.077.205-.116.379-.116h.002c2.263.004 4.564.003 6.789.002h1.657c.147 0 .255.014.344.081a.298.298 0 0 1 .13.228c.005.067.005.134.005.205v.672c0 3.894 0 7.92-.002 11.881 0 .026.002.053.004.08.008.127-.002.131-.039.147Z" stroke-linejoin="round" stroke-linecap="round" stroke="#fff" fill="transparent"/></g></svg>