<svg xmlns="http://www.w3.org/2000/svg" width="25.145" height="29.896" viewBox="1856.933 123.693 25.145 29.896"><g data-name="Group 103"><g data-name="Group 101"><path d="M1877.398 148.045c-.075-2.748-.058-5.545-.042-8.25.007-1.224.016-2.49.014-3.735 0-.277.002-.554.004-.831.005-.824.01-1.676-.041-2.509-.147-2.364-1.988-4.178-4.282-4.221-3.98-.075-7.95-.075-11.802 0-2.358.047-4.286 2.047-4.298 4.459-.025 5.118-.024 10.402.002 16.152.007 1.466.627 2.672 1.793 3.489.43.3.945.507 1.442.709.222.088.45.181.67.28h12.548c2.657-.566 4.075-2.534 3.992-5.543Zm-2.18.697c-.003 1.712-1.003 2.696-2.743 2.697H1867l-5.216-.001c-1.684-.001-2.691-1.006-2.693-2.686-.002-1.817-.002-3.634-.002-5.451l.001-2.303v-2.284l.001-5.41c0-1.707.98-2.687 2.684-2.69 3.448-.004 6.963-.004 10.749 0 1.709.002 2.69.979 2.693 2.68.008 5.037.008 10.235 0 15.448Z" fill="#fff" fill-rule="evenodd" data-name="Path 39"/></g><g data-name="Group 102"><path d="m1882.076 134.365-.003 2.57v1.727c.002 2.303.002 4.607-.001 6.91 0 .268-.004.51-.052.738-.093.46-.515.8-1.002.81h-.022c-.502 0-.93-.344-1.022-.824a4.265 4.265 0 0 1-.05-.788v-7.438c0-3.165 0-6.33-.003-9.494-.001-1.423-.704-2.396-1.931-2.668-.272-.061-.556-.061-.838-.061l-8.186-.003h-4.229a2.829 2.829 0 0 1-.492-.021 1.048 1.048 0 0 1-.883-1.06c.003-.532.37-.965.892-1.05.143-.022.29-.02.446-.019l.124.002 1.575-.002c3.588 0 7.176 0 10.764.002 2.967 0 4.895 1.923 4.908 4.896.009 1.925.007 3.88.005 5.773Z" fill="#fff" fill-rule="evenodd" data-name="Path 40"/></g></g></svg>