<svg xmlns="http://www.w3.org/2000/svg" width="21" height="21" viewBox="451 414 21 21"><g data-name="CompositeLayer"><path d="M455 414h13a4 4 0 0 1 4 4v13a4 4 0 0 1-4 4h-13a4 4 0 0 1-4-4v-13a4 4 0 0 1 4-4z" fill="#2d5ee8" fill-rule="evenodd" data-name="Rectangle 94"/><g data-name="Group 342"><path d="M467.292 421.913a.908.908 0 0 1-.228.626c-.037.041-.077.08-.116.119l-6.703 6.703c-.35.35-.667.352-1.015.004-1.072-1.072-2.144-2.143-3.215-3.216-.32-.32-.405-.736-.185-1.095.195-.32.466-.587.785-.784.347-.215.768-.13 1.085.185.63.627 1.258 1.257 1.886 1.885.026.026.054.051.079.078.046.051.091.056.14.003.027-.03.058-.059.087-.088 1.795-1.795 3.59-3.589 5.384-5.385.28-.281.601-.4.99-.275.288.092.89.7.983.988.03.092.048.187.043.252Z" fill="#fff" fill-rule="evenodd" data-name="Path 106"/></g></g></svg>