<svg xmlns="http://www.w3.org/2000/svg" width="33.877" height="32.73" viewBox="1770.113 35.624 33.877 32.73"><g data-name="Group 295"><path d="M1802.912 40.404a4.02 4.02 0 0 0-2.959-1.269 4751.52 4751.52 0 0 0-6.595 0h-11.671c-.07 0-.14 0-.209-.002-.18-.001-.366-.003-.558.006a1.985 1.985 0 0 0-1.878 1.852c-.066.93.624 1.814 1.57 2.014.27.057.529.062.77.062h4.678c4.496.002 9.145.002 13.718-.01.178.003.248.038.258.048.008.012.034.097-.009.272-.3 1.239-.59 2.499-.87 3.718a2561.354 2561.354 0 0 1-1.66 7.137c-.032.14-.064.179-.063.179-.003.001-.047.027-.194.033-.046.003-.091.002-.136.002h-15.559c-.046 0-.092 0-.138-.002-.148-.007-.193-.032-.194-.032-.002-.002-.034-.04-.068-.18-.134-.555-.263-1.123-.39-1.671l-.043-.193-.893-3.901c-.662-2.893-1.323-5.785-1.988-8.676-.28-1.217-1.02-2.145-2.14-2.683-.72-.346-1.457-.684-2.17-1.01l-.543-.248c-.289-.133-.68-.277-1.135-.208-.887.133-1.556.777-1.703 1.642-.145.847.302 1.68 1.111 2.072.31.15.626.294.93.434.325.149.66.303.983.46.226.111.405.19.549.255.11.049.232.103.287.135.031.082.077.293.123.498l.086.388a7459.14 7459.14 0 0 1 3.106 13.575c.454 1.996 2.006 3.237 4.049 3.238h15.895c2.057 0 3.565-1.18 4.034-3.157.686-2.893 1.367-5.838 2.026-8.686l.213-.92c.042-.183.09-.364.14-.555.135-.514.274-1.045.31-1.616a3.977 3.977 0 0 0-1.07-3.001Z" fill="#929292" fill-rule="evenodd" data-name="Path 81"/><path d="M1783.65 59.651h-.011c-1.143 0-2.23.456-3.06 1.284a4.312 4.312 0 0 0-1.292 3.055c-.006 2.355 1.98 4.353 4.339 4.364h.019c2.347 0 4.337-1.987 4.346-4.34a4.305 4.305 0 0 0-1.28-3.066 4.32 4.32 0 0 0-3.06-1.297Zm-.014 2.874Zm-.935.547a1.3 1.3 0 0 1 .93-.376h.005c.361 0 .694.135.937.378a1.3 1.3 0 0 1 .374.93c-.001.745-.566 1.306-1.312 1.306h-.008a1.29 1.29 0 0 1-1.295-1.292 1.317 1.317 0 0 1 .369-.946Z" fill="#929292" fill-rule="evenodd" data-name="Path 82"/><path d="M1795.081 59.651h-.011c-1.143 0-2.23.456-3.06 1.284a4.312 4.312 0 0 0-1.292 3.055c-.006 2.355 1.98 4.353 4.339 4.364h.019c2.347 0 4.337-1.987 4.346-4.34a4.305 4.305 0 0 0-1.28-3.066 4.32 4.32 0 0 0-3.06-1.297Zm-.013 2.874Zm-.936.547a1.3 1.3 0 0 1 .93-.376h.006c.36 0 .693.135.936.378.242.242.375.573.374.93-.002.745-.565 1.306-1.312 1.306h-.009a1.29 1.29 0 0 1-1.294-1.292 1.316 1.316 0 0 1 .37-.946Z" fill="#929292" fill-rule="evenodd" data-name="Path 83"/></g></svg>