<svg xmlns="http://www.w3.org/2000/svg" width="15.892" height="15.914" viewBox="1790.5 29.5 15.892 15.914"><g data-name="Path 84"><path d="M1807.892 40.475c-.008 3.535-2.878 6.415-6.42 6.44-3.54.023-6.464-2.894-6.472-6.454-.008-3.559 2.894-6.463 6.454-6.461 3.56.002 6.447 2.905 6.438 6.475Z" fill="#4b55a1" fill-rule="evenodd"/><path d="M-1175.063 1964.092c-.008 3.535-2.878 6.415-6.42 6.44-3.54.024-6.465-2.893-6.472-6.454-.008-3.559 2.894-6.463 6.454-6.46 3.56.001 6.446 2.904 6.438 6.474Z" stroke-linejoin="round" stroke-linecap="round" stroke-width="3" stroke="#fff" fill="transparent" transform="matrix(1.2327 0 0 1.2323 3257.9 -2379.876)"/></g></svg>