<svg xmlns="http://www.w3.org/2000/svg" width="99" height="95" viewBox="1784.5 1000.5 99 95"><g data-name="Group 327"><g data-name="Rectangle 83"><path d="M16 0h62a16 16 0 0 1 16 16v58a16 16 0 0 1-16 16H16A16 16 0 0 1 0 74V16A16 16 0 0 1 16 0z" fill-rule="evenodd" fill="url(&quot;#a&quot;)" transform="translate(1787 1003)"/><path d="M16 0h62a16 16 0 0 1 16 16v58a16 16 0 0 1-16 16H16A16 16 0 0 1 0 74V16A16 16 0 0 1 16 0z" stroke-linejoin="round" stroke-linecap="round" stroke-width="5" stroke="rgba(255,255,255,0.31 )" fill="transparent" transform="matrix(1.0532 0 0 1.05556 1784.5 1000.5)"/></g><g data-name="Group 326"><g data-name="Group 325"><path d="M1834.269 1026c-10.188.07-19.025 6.919-21.562 16.767-3.152 12.231 4.548 24.727 16.894 27.343 5.265 1.116 10.304.376 15.063-2.158.324-.172.605-.206.959-.096 1.74.542 3.486 1.073 5.238 1.579 2.125.613 4.235-.61 4.66-2.754.117-.594.069-1.27-.087-1.86-.439-1.669-.963-3.316-1.476-4.964-.153-.494-.123-.917.124-1.387a20.924 20.924 0 0 0 2.358-7.981c.518-5.903-1.006-11.25-4.672-15.914-3.656-4.65-8.48-7.38-14.32-8.292-1.05-.164-2.119-.192-3.18-.283Zm-4.482 27.486h-.089c0-.792-.01-1.583.003-2.375.014-.79.017-1.582.087-2.368.191-2.143 2.144-3.944 4.301-4.003 2.754-.075 4.822 1.949 4.85 4.792a478.6 478.6 0 0 1 .001 7.899c-.022 3.222-2.68 5.07-5.255 4.73-1.92-.254-3.766-1.958-3.88-3.884-.092-1.592-.018-3.194-.018-4.79Zm9.153-14.51c-.109 2.589-1.927 4.585-4.595 4.602-2.625.016-4.62-1.941-4.613-4.605.007-2.638 1.973-4.583 4.592-4.578 2.637.004 4.488 1.949 4.616 4.58Z" fill="#fff" fill-rule="evenodd" data-name="Path 85"/><path d="M1835.905 1053.438c0-1.357.004-2.714-.001-4.07-.004-.93-.732-1.673-1.604-1.654-.872.02-1.559.735-1.56 1.65-.006 2.746-.006 5.492 0 8.237.001.938.661 1.59 1.579 1.592.913 0 1.58-.66 1.584-1.589.007-1.388.002-2.777.002-4.166Z" fill="#fff" fill-rule="evenodd" data-name="Path 86"/><path d="M1834.351 1040.57c.9-.007 1.562-.695 1.554-1.614-.009-.909-.686-1.56-1.613-1.552-.908.008-1.563.688-1.554 1.613.008.908.687 1.562 1.613 1.554Z" fill="#fff" fill-rule="evenodd" data-name="Path 87"/></g></g></g><defs><linearGradient x1=".5" y1="0" x2=".5" y2="1" id="a"><stop stop-color="#e7323b" offset="0"/><stop stop-color="#f22f6b" offset="1"/></linearGradient></defs></svg>