<svg xmlns="http://www.w3.org/2000/svg" width="22" height="16.664" viewBox="435.84 508.31 22 16.664"><path d="M452.182 524.974h-.035c-.049-.074-.094-.15-.146-.222a13.194 13.194 0 0 1-.942-1.525c-.105-.2-.102-.204.112-.29.505-.204.999-.433 1.474-.701.117-.066.142-.11.029-.219-.188-.18-.357-.192-.6-.084-1.413.633-2.899.994-4.444 1.083a13.034 13.034 0 0 1-6.042-1.09c-.22-.097-.379-.1-.553.071-.147.145-.158.15.03.253.461.256.936.483 1.426.678.23.091.23.094.116.317-.31.607-.694 1.17-1.083 1.729h-.035c-.077-.03-.153-.064-.231-.09a18.475 18.475 0 0 1-5.06-2.522.628.628 0 0 1-.296-.556c-.005-.295-.04-.588-.062-.882v-1.386c.01-.064.026-.127.027-.191.013-.48.06-.958.121-1.433.379-2.953 1.48-5.63 3.121-8.096a.453.453 0 0 1 .192-.178 18.484 18.484 0 0 1 4.265-1.323c.138-.025.225.017.286.142.127.261.272.514.386.78.075.173.174.221.357.193a14.63 14.63 0 0 1 1.998-.155 15.86 15.86 0 0 1 2.531.16c.15.022.241-.018.305-.165.117-.266.259-.52.379-.784.075-.166.185-.194.356-.162a18.7 18.7 0 0 1 4.148 1.283c.12.053.204.132.275.24a20.326 20.326 0 0 1 1.768 3.217 17.868 17.868 0 0 1 1.476 6.615c.023.757 0 1.515-.063 2.27a.414.414 0 0 1-.186.338 18.761 18.761 0 0 1-3.519 1.988c-.616.263-1.25.477-1.88.697Zm.256-7.656c.013-.285-.083-.66-.275-1.01-.621-1.135-2.044-1.385-2.95-.518-.89.852-.909 2.397-.038 3.271.701.705 1.706.77 2.474.142.554-.453.79-1.062.79-1.885Zm-7.29.124a2.272 2.272 0 0 0-.2-.984c-.572-1.288-2.174-1.588-3.11-.584-.857.92-.785 2.456.154 3.292.698.62 1.716.621 2.412-.003.512-.458.735-1.044.745-1.72Z" fill="#fff" fill-rule="evenodd" data-name="Path 145"/></svg>