<svg xmlns="http://www.w3.org/2000/svg" width="35" height="18" viewBox="1681.5 2123.946 35 18"><g data-name="Group 120"><path d="M9.5 0h17A9.5 9.5 0 0 1 36 9.5h0a9.5 9.5 0 0 1-9.5 9.5h-17A9.5 9.5 0 0 1 0 9.5h0A9.5 9.5 0 0 1 9.5 0z" stroke-linejoin="round" stroke-linecap="round" stroke="#fff" fill="transparent" transform="matrix(.97222 0 0 .94737 1681.5 2123.946)" data-name="Rectangle 33"/><path d="M1700 2132.846a7 7.5 0 1 1 0 .1z" fill="#fff" fill-rule="evenodd" data-name="Ellipse 17"/><path d="M1703.479 2132.931a3.449 3.449 0 0 1 2.21-3.191c.104-.04.204-.068.297.018.098.091.074.196.04.308-.534 1.702.44 3.427 2.171 3.84.51.12 1.019.097 1.522-.052.04-.012.08-.04.118-.036.086.008.186.008.254.053.09.06.077.167.038.265-.453 1.134-1.265 1.873-2.456 2.142-1.965.445-3.835-.846-4.148-2.836-.027-.169-.031-.34-.046-.51Z" fill="#2e2e2e" fill-rule="evenodd" data-name="Path 41"/></g></svg>