<svg xmlns="http://www.w3.org/2000/svg" width="10.121" height="19.432" viewBox="2354.838 272.378 10.121 19.432"><path d="M2364.958 275.586c-.262 0-.498-.003-.733 0-.448.006-.896.004-1.343.023-.964.042-1.4.424-1.46 1.37-.049.764-.017 1.531-.02 2.297 0 .058.011.116.02.207h3.407c-.063.517-.12.996-.182 1.474-.072.572-.163 1.142-.217 1.715-.023.242-.127.287-.341.284-.786-.01-1.573-.003-2.359-.003h-.32v8.775c-.45.03-.872.092-1.293.08-.665-.018-1.328-.092-1.993-.127-.25-.013-.305-.125-.305-.357.006-2.675.003-5.35.002-8.026v-.347h-2.39c-.593 0-.593 0-.593-.6v-2.859h2.985v-.443c.01-.904-.026-1.812.041-2.713.18-2.394 1.775-3.904 4.179-3.955.893-.02 1.788.06 2.68.11.082.004.224.12.225.186.014.953.01 1.906.01 2.909Z" fill="#fff" fill-rule="evenodd" data-name="Path 70"/></svg>