<svg xmlns="http://www.w3.org/2000/svg" width="21" height="21" viewBox="371.103 0.332 21 21"><g data-name="CompositeLayer"><g data-name="Group 6"><path d="M371.103 10.782a10.5 10.5 0 1 1 0 .1z" fill="#3c5899" fill-rule="evenodd" data-name="Ellipse 6"/></g><g data-name="Group 504"><path d="M377.108 14.028c0-.374.034-.748.11-1.115.052-.245.121-.486.216-.72.813-2.003 2.287-3.178 4.428-3.505.374-.057.377-.041.377-.423V6.503c0-.042-.022-.1.023-.12.022-.01.07.031.1.056 1.462 1.19 2.923 2.381 4.386 3.57.068.055.06.085-.003.136-1.473 1.202-2.944 2.406-4.416 3.608-.02.017-.048.023-.073.034-.006-.03-.017-.06-.017-.09 0-.685-.002-1.37.001-2.055 0-.097-.028-.13-.124-.12-1.916.206-3.355 1.137-4.253 2.849-.286.543-.493 1.128-.736 1.693-.04-.017-.018-.05-.018-.075v-1.96Z" fill="#fff" fill-rule="evenodd" data-name="Path 142"/></g></g></svg>