<svg xmlns="http://www.w3.org/2000/svg" width="16.746" height="17.197" viewBox="2376.16 273.474 16.746 17.197"><g data-name="Group 154"><path d="M2376.18 282.056c0-1.332-.04-2.666.008-3.996.088-2.456 2.197-4.523 4.66-4.559 2.447-.035 4.895-.035 7.342-.004 2.564.032 4.697 2.209 4.708 4.766.011 2.545.009 5.091-.002 7.637-.01 2.5-2.173 4.708-4.68 4.74-2.447.033-4.895.049-7.342.004-2.624-.048-4.687-2.212-4.71-4.859-.01-1.243 0-2.486 0-3.729h.015Zm1.298.081h.007c0 1.323-.054 2.648.013 3.967.088 1.727 1.697 3.213 3.416 3.225 2.348.017 4.696.024 7.044.014 2.057-.009 3.632-1.59 3.636-3.638.004-2.436-.01-4.873-.008-7.309.002-1.949-1.617-3.587-3.566-3.59-2.328-.003-4.656-.005-6.985-.004-1.833 0-3.435 1.421-3.541 3.25-.079 1.358-.016 2.723-.016 4.085Z" fill="#fff" fill-rule="evenodd" data-name="Path 71"/><path d="M2389.125 281.92c.038 2.584-1.981 4.675-4.543 4.706-2.525.03-4.605-1.973-4.644-4.472-.04-2.551 1.934-4.642 4.42-4.683 2.812-.046 4.728 1.742 4.767 4.449Zm-1.597.01c-.007-1.787-1.177-2.88-3.081-2.878-1.605.002-2.917 1.354-2.916 3.008 0 1.624 1.363 2.978 2.997 2.978 1.66 0 3.008-1.395 3-3.108Z" fill="#fff" fill-rule="evenodd" data-name="Path 72"/><path d="M2390.3 277.359a1.088 1.088 0 0 1-1.068 1.093 1.085 1.085 0 0 1-1.115-1.074c-.002-.625.462-1.099 1.08-1.105a1.08 1.08 0 0 1 1.103 1.086Z" fill="#fff" fill-rule="evenodd" data-name="Path 73"/></g></svg>