<svg xmlns="http://www.w3.org/2000/svg" width="25.065" height="30.097" viewBox="36.488 30.278 25.065 30.097"><g data-name="Group 106"><path d="M41.048 60.375c-.82-.299-1.708-.482-2.443-.922-1.283-.768-1.97-2.012-2.068-3.503-.18-2.731.107-5.404 1.368-7.884.998-1.961 2.584-3.117 4.831-3.2.405-.015.853.11 1.22.295.888.446 1.704 1.052 2.615 1.438 2.145.909 4.21.57 6.169-.618.167-.101.33-.211.494-.317 1.713-1.102 3.392-1.035 5.04.18 1.305.962 2.049 2.301 2.524 3.798.627 1.978.852 4.019.718 6.088-.157 2.419-1.684 4.088-4.09 4.539-.131.024-.259.07-.388.106h-15.99Zm7.975-1.764v-.006c2.468 0 4.936.033 7.403-.01 2.15-.037 3.393-1.307 3.37-3.448a22.122 22.122 0 0 0-.302-3.387c-.241-1.454-.661-2.863-1.697-3.995-1.112-1.215-2.42-1.402-3.774-.51-1.349.89-2.807 1.466-4.425 1.585-2.12.155-4.042-.466-5.73-1.705-.925-.68-1.756-.563-2.668-.108-.81.405-1.35 1.07-1.733 1.855-1.07 2.186-1.35 4.53-1.181 6.918.103 1.474 1.062 2.416 2.52 2.7.42.082.855.105 1.283.107 2.311.01 4.623.004 6.934.004Z" fill="#fff" fill-rule="evenodd" data-name="Path 47"/><path d="M41.59 37.518a7.215 7.215 0 0 1 7.233-7.24c4.026-.002 7.284 3.266 7.26 7.284a7.222 7.222 0 0 1-7.276 7.199c-4.034-.01-7.224-3.212-7.216-7.243Zm1.769-.005a5.441 5.441 0 0 0 5.472 5.48c3.03-.001 5.51-2.48 5.487-5.485a5.513 5.513 0 0 0-5.461-5.464c-3.02-.023-5.486 2.429-5.498 5.469Z" fill="#fff" fill-rule="evenodd" data-name="Path 48"/></g></svg>