<svg xmlns="http://www.w3.org/2000/svg" width="29.939" height="29.947"><path d="M29.939 16.487c-.163.326-.291.675-.495.973-.571.838-1.401 1.217-2.4 1.2-.369-.005-.51.133-.675.463-.43.858-.598 1.53.197 2.386.821.887.588 2.328-.258 3.266-.456.506-.943.986-1.44 1.452-1.158 1.08-2.753 1.077-3.879-.042-.334-.331-.564-.321-.998-.184-.923.292-1.382.727-1.44 1.792-.065 1.179-1.279 2.083-2.502 2.131a25.84 25.84 0 0 1-2.162 0c-1.482-.066-2.572-1.242-2.606-2.832-.008-.413-.146-.57-.52-.756-.855-.423-1.502-.53-2.333.225-.898.817-2.331.587-3.267-.26a25.038 25.038 0 0 1-1.45-1.44c-1.08-1.15-1.076-2.76.043-3.878.334-.334.319-.565.183-.998-.29-.925-.728-1.379-1.792-1.44-1.2-.069-2.097-1.306-2.135-2.56-.018-.603-.008-1.207-.004-1.81.01-1.686 1.103-2.853 2.78-2.893.473-.011.642-.177.838-.583.394-.817.508-1.434-.218-2.227-.838-.917-.63-2.368.231-3.317.458-.504.944-.984 1.442-1.45 1.153-1.081 2.751-1.076 3.877.044.335.334.566.316.998.182.927-.288 1.402-.72 1.437-1.79.03-.915.734-1.553 1.596-1.928.156-.068.31-.142.465-.213h3.04c.173.078.348.154.52.234.832.382 1.517 1.015 1.541 1.907.029 1.073.519 1.499 1.44 1.791.435.139.665.146.997-.185 1.123-1.12 2.72-1.123 3.878-.04.497.465.984.946 1.44 1.45.845.935 1.078 2.378.256 3.267-.793.858-.623 1.53-.195 2.387.165.33.307.468.677.462.974-.019 1.794.343 2.364 1.153.219.31.355.679.529 1.02v3.04Zm-4.57-9.423c-.162-.314-.242-.585-.412-.775-.402-.45-.835-.873-1.275-1.285-.5-.468-.993-.457-1.5.012-.27.252-.526.52-.786.783-.344.348-.724.393-1.172.2a83.867 83.867 0 0 0-2.634-1.09c-.434-.17-.666-.452-.667-.919 0-.37.01-.74-.007-1.11-.032-.75-.393-1.11-1.128-1.124-.565-.01-1.13-.014-1.695.002-.642.019-1.012.369-1.058 1.01-.03.407-.01.817-.014 1.226-.003.467-.239.746-.671.916-.884.348-1.762.714-2.634 1.09-.448.194-.828.145-1.17-.205-.273-.278-.54-.563-.83-.823-.46-.412-.964-.42-1.414-.005-.458.422-.9.864-1.322 1.322-.437.474-.417.97.031 1.456.25.272.518.528.783.787.37.361.4.754.192 1.222a59.42 59.42 0 0 0-1.067 2.58c-.168.433-.44.676-.909.68-.39.004-.78-.01-1.168.01-.71.037-1.064.403-1.08 1.111-.012.546-.01 1.091 0 1.637.013.74.369 1.105 1.113 1.139.369.017.74.006 1.11.006.465 0 .755.224.926.657.349.884.71 1.764 1.089 2.635.194.446.158.828-.189 1.174-.261.261-.53.517-.782.787-.476.51-.493.999-.027 1.499.411.441.838.87 1.281 1.28.474.44.974.428 1.457-.012.274-.248.53-.515.788-.782.357-.37.746-.418 1.218-.208.85.378 1.711.735 2.58 1.068.46.176.698.466.696.957-.001.39-.016.78.01 1.168.045.671.417 1.02 1.095 1.036a35.8 35.8 0 0 0 1.694 0c.674-.016 1.046-.37 1.09-1.04.027-.388.013-.78.011-1.169-.002-.492.24-.778.7-.954a56.44 56.44 0 0 0 2.58-1.068c.445-.195.826-.174 1.175.172.29.288.567.592.873.862.438.387.943.397 1.37.006.474-.433.93-.889 1.364-1.362.409-.447.388-.952-.032-1.415-.26-.288-.547-.554-.822-.829-.349-.347-.378-.727-.184-1.173.38-.871.737-1.752 1.088-2.635.162-.406.426-.644.87-.65.41-.006.82.012 1.228-.013.674-.042 1.031-.412 1.049-1.082.015-.565.013-1.13 0-1.695-.015-.705-.372-1.07-1.084-1.108-.35-.018-.7-.013-1.051-.004-.572.016-.889-.253-1.056-.801-.18-.593-.373-1.196-.662-1.74-.829-1.556-.615-1.485.44-2.572.232-.24.393-.547.6-.842Z" fill="#fff" fill-rule="evenodd" data-name="Path 45"/></svg>