<svg xmlns="http://www.w3.org/2000/svg" width="25.065" height="15.51" viewBox="0 14.587 25.065 15.51"><path d="M4.56 30.097c-.82-.299-1.708-.482-2.443-.922C.834 28.407.147 27.163.05 25.672c-.18-2.732.107-5.404 1.368-7.884.998-1.961 2.584-3.117 4.831-3.2.405-.015.853.11 1.22.295.888.446 1.704 1.052 2.615 1.438 2.146.909 4.21.57 6.169-.618.167-.101.33-.211.494-.317 1.713-1.102 3.392-1.036 5.041.18 1.305.962 2.048 2.301 2.523 3.798.627 1.978.853 4.019.718 6.088-.157 2.419-1.684 4.088-4.09 4.539-.131.024-.259.07-.388.106H4.56Zm7.975-1.764v-.006c2.468 0 4.936.033 7.403-.01 2.15-.037 3.393-1.307 3.37-3.448a22.122 22.122 0 0 0-.302-3.387c-.24-1.454-.661-2.863-1.696-3.995-1.112-1.215-2.42-1.402-3.775-.51-1.349.89-2.807 1.466-4.424 1.585-2.121.155-4.043-.466-5.73-1.706-.925-.679-1.757-.563-2.669-.107-.81.405-1.35 1.07-1.733 1.855-1.069 2.186-1.349 4.53-1.181 6.918.103 1.474 1.062 2.416 2.52 2.7.42.082.855.105 1.283.107 2.312.01 4.623.004 6.934.004Z" fill="#fff" fill-rule="evenodd" data-name="Path 47"/></svg>