<svg xmlns="http://www.w3.org/2000/svg" width="29.854" height="30.767"><path d="M8.328 0c.946.53.797 1.297.399 2.09 1.135-.325 2.205-.704 3.307-.937 8.289-1.754 16.618 4.164 17.688 12.542 1.019 7.981-3.934 15.028-11.77 16.743-8.305 1.817-16.72-4.11-17.81-12.535-.38-2.93-.003-5.74 1.248-8.423.423-.906.964-1.2 1.604-.887.615.3.716.885.305 1.767a12.843 12.843 0 0 0 5.792 16.882c7.97 4.088 17.638-1.128 18.597-10.034.88-8.165-5.887-14.982-14.08-14.187-1.574.153-3.522.752-4.527 1.41.524.17 1.018.32 1.504.493.655.23.94.762.748 1.356-.177.549-.732.832-1.363.645a97.514 97.514 0 0 1-3.314-1.048c-.83-.28-1.223-1.046-.929-1.87A64.18 64.18 0 0 1 7.042.662C7.15.407 7.415.22 7.607 0h.72Z" fill="#fff" fill-rule="evenodd" data-name="Path 37"/></svg>