<svg xmlns="http://www.w3.org/2000/svg" width="30.097" height="30.097"><path d="M0 22.687V2.116C.351 1.056 1.056.35 2.116 0h10.11c1.492.456 2.134 1.529 2.227 3.024.037.585.185 1.165.201 1.749.014.517.252.587.695.583 2.272-.018 4.544-.008 6.816-.008 1.684 0 3.369-.015 5.053.005 1.745.02 2.866 1.075 2.87 2.733.012 6.424.012 12.848 0 19.272-.003 1.615-1.13 2.726-2.755 2.73-4.72.012-9.44.011-14.16 0-1.48-.002-2.52-.935-2.722-2.395-.134-.964-.251-1.93-.382-2.948H9.33c-2.135 0-4.27-.005-6.404.001-1.173.004-2.095-.42-2.651-1.497-.096-.185-.183-.374-.275-.562Zm13.455 5.643H27.06c1.004-.001 1.269-.274 1.269-1.306V8.452c0-1.094-.245-1.338-1.354-1.339-3.781-.002-7.562 0-11.343 0-.21 0-.42.019-.63.028-.012.11-.03.166-.023.22.66 5.322 1.314 10.646 1.998 15.965.075.585-.059 1.017-.436 1.443-1.01 1.14-1.997 2.3-3.087 3.56Zm1.691-5.35c-.45-3.63-.885-7.146-1.322-10.66-.376-3.03-.765-6.06-1.13-9.091-.155-1.296-.314-1.466-1.597-1.466H3.104c-1.094 0-1.34.25-1.34 1.352V21.57c0 1.188.219 1.41 1.4 1.411h11.982Zm-.967 1.808h-2.318l.299 2.34 2.02-2.34Z" fill="#fff" fill-rule="evenodd" data-name="Path 42"/></svg>