<svg xmlns="http://www.w3.org/2000/svg" width="26.765" height="29.745" viewBox="35.639 31.391 26.765 29.745"><g data-name="Group 98"><g data-name="Group 95"><path d="M62.401 46.604c-.001-2.088-1.15-3.24-3.237-3.243-2.39-.003-4.78-.002-7.17-.002l-2.937.001-3.04-.001-3.029-.001c-1.391 0-2.791.001-4.179.004-2.012.004-3.167 1.16-3.167 3.169-.004 3.401-.004 7.015-.002 11.371.002 2.05 1.17 3.227 3.201 3.23 6.754.006 13.602.006 20.356 0 2.034-.003 3.202-1.178 3.204-3.227.002-3.482.003-7.179 0-11.3ZM59.576 58.27H38.458V46.197h21.118V58.27Z" fill="#fff" fill-rule="evenodd" data-name="Path 35"/></g><g data-name="Group 96"><path d="M38.67 37.397h20.712v2.68H38.671v-2.68z" fill="#fff" fill-rule="evenodd" data-name="Rectangle 34"/></g><g data-name="Group 97"><path d="M41.689 31.391h14.665v2.73H41.689v-2.73z" fill="#fff" fill-rule="evenodd" data-name="Rectangle 35"/></g></g></svg>