<svg xmlns="http://www.w3.org/2000/svg" width="21.981" height="21.981"><path d="M21.98 3.652C21.977 1.441 20.544.01 18.328.006a4857.254 4857.254 0 0 0-14.69 0C1.434.012.007 1.449.004 3.669V11.603c0 .675 0 1.35-.002 2.025-.002 1.996-.004 4.06.017 6.09.005.453.12.91.312 1.255.309.55.81.9 1.41.987.661.096 1.347-.144 1.882-.66 1.624-1.572 3.268-3.178 4.859-4.732l1.375-1.342c.83-.809 1.445-.81 2.271-.002.739.719 1.476 1.438 2.213 2.158 1.306 1.273 2.659 2.591 3.984 3.89.447.436.913.663 1.426.692a2.05 2.05 0 0 0 1.549-.542c.438-.413.679-1.007.679-1.675.003-4.686.003-9.65.001-16.095Zm-1.862 15.859c0 .115-.015.228-.032.371-.01.076-.02.16-.03.26l-.016.142-.108-.095a57.149 57.149 0 0 0-.187-.163c-.101-.085-.18-.154-.255-.226l-2.522-2.452a3299.122 3299.122 0 0 0-3.62-3.522c-1.475-1.432-3.238-1.43-4.713.007l-3.154 3.072c-.97.949-1.943 1.896-2.916 2.844-.082.08-.165.158-.28.266-.063.059-.136.126-.223.209l-.108.101-.017-.147c-.011-.106-.024-.193-.034-.27a2.448 2.448 0 0 1-.032-.344c-.004-5.458-.005-10.812-.002-15.912 0-1.175.597-1.771 1.777-1.771 4.737-.002 9.679-.002 14.688 0 1.201 0 1.785.592 1.786 1.808 0 5.828 0 11.004-.002 15.822Z" fill="#fff" fill-rule="evenodd" data-name="Path 36"/></svg>