<svg xmlns="http://www.w3.org/2000/svg" width="32.181" height="35.275" viewBox="1765.492 32.863 32.181 35.275"><g data-name="Group 119"><path d="M1779.897 68.137c-.783-.335-1.62-.582-2.337-1.024-1.299-.8-2.035-2.054-2.423-3.57-2.329 0-4.645.016-6.96-.006-1.749-.018-2.985-1.479-2.622-3.169.117-.545.45-1.138.864-1.51 2.487-2.234 3.657-4.997 3.656-8.326-.001-1.98-.077-3.995.24-5.935.828-5.069 5.733-8.88 10.813-8.614.597.03 1.166.203 1.271.824.065.378-.112.888-.358 1.2-.17.215-.644.264-.982.262-4.27-.028-7.738 2.73-8.54 6.918-.196 1.021-.101 2.096-.161 3.146-.104 1.833-.066 3.692-.376 5.492-.437 2.544-1.814 4.646-3.688 6.421-.204.194-.316.485-.471.73.271.09.542.258.814.259 8.11.014 16.22.014 24.33.002.26-.001.518-.146.776-.224-.125-.23-.2-.516-.38-.686-2.728-2.556-4.13-5.686-4.148-9.43-.003-.526-.016-1.053.007-1.579.029-.698.477-1.14 1.119-1.147.635-.006 1.109.43 1.158 1.122.035.5.014 1.004.012 1.507-.013 3.201 1.197 5.853 3.58 7.98.946.844 1.243 1.945.825 3.04-.408 1.07-1.388 1.717-2.648 1.721-2.27.008-4.54.002-6.838.002-.5 1.921-1.59 3.33-3.393 4.123-.454.2-.944.316-1.417.471h-1.723Zm-2.264-4.566c.386 1.36 1.741 2.282 3.227 2.271 1.406-.008 2.947-1.178 3.057-2.299-1.96 0-3.916 0-5.871.002-.134 0-.269.016-.413.026Z" fill="#fff" fill-rule="evenodd" data-name="Path 58"/><path d="M1797.673 39.063c-.007 3.386-2.756 6.144-6.148 6.167-3.39.024-6.191-2.77-6.198-6.18-.008-3.408 2.771-6.19 6.18-6.187 3.41.002 6.174 2.782 6.166 6.2Z" fill="#e7323b" fill-rule="evenodd" data-name="Path 59"/></g></svg>