<svg xmlns="http://www.w3.org/2000/svg" width="16.25" height="16.271" viewBox="1861.75 21 16.25 16.271"><g data-name="Path 70"><path d="M1880 33.153c-.007 3.359-2.735 6.095-6.1 6.118-3.363.023-6.143-2.748-6.15-6.132-.008-3.381 2.75-6.141 6.133-6.139 3.382.002 6.125 2.76 6.117 6.153Z" fill="#e7323b" fill-rule="evenodd"/><path d="M-1175.705 1963.77c-.007 3.36-2.735 6.095-6.1 6.118-3.363.024-6.143-2.748-6.15-6.131-.008-3.382 2.75-6.142 6.133-6.14 3.382.002 6.125 2.76 6.117 6.153Z" stroke-linejoin="round" stroke-linecap="round" stroke-width="4" stroke="#fff" fill="transparent" transform="matrix(1.32653 0 0 1.32596 3441.608 -2570.725)"/></g></svg>