<svg xmlns="http://www.w3.org/2000/svg" width="32.765" height="32.734"><path d="M0 13.042v2.494c.014.083.032.167.04.25.172 1.714.64 3.343 1.403 4.884 2.58 5.219 8.142 8.5 14.18 7.939a14.103 14.103 0 0 0 6.852-2.492c.28-.194.435-.169.668.063 1.94 1.932 3.894 3.848 5.837 5.776.364.36.762.645 1.26.778h.896c.129-.049.26-.092.387-.148 1.357-.604 1.67-2.327.599-3.406a982.265 982.265 0 0 0-5.99-5.984c-.237-.235-.247-.385-.058-.661 2.356-3.437 3.185-7.226 2.242-11.277C27.042 5.786 23.612 2.224 18.258.524 17.353.236 16.412.114 15.472 0H13.17c-.4.055-.803.092-1.2.168C6.472 1.228 2.744 4.396.758 9.621.338 10.721.15 11.88 0 13.042Zm24.488 1.261c.07 5.324-4.225 10.185-10.154 10.203A10.118 10.118 0 0 1 4.132 14.34C4.118 8.61 8.702 4.145 14.297 4.14c5.856-.008 10.242 4.784 10.191 10.164Z" fill="#929292" fill-rule="evenodd" data-name="Path 80"/></svg>