<svg xmlns="http://www.w3.org/2000/svg" width="17.835" height="18.774" viewBox="898.164 353.113 17.835 18.774"><g data-name="Group 341"><path d="M901.177 355.852c.734 0 1.469-.009 2.203.005.224.004.287-.07.27-.281-.017-.206-.004-.413-.003-.62a1.828 1.828 0 0 1 1.834-1.838c1.07-.007 2.139-.007 3.208 0a1.831 1.831 0 0 1 1.833 1.84c.002.206.014.414-.003.62-.018.213.05.28.272.279 1.454-.009 2.909-.003 4.363-.002.086 0 .173-.002.256.012a.7.7 0 0 1 .589.665c.01.358-.194.64-.544.717-.337.075-.682.023-1.024.032-.278.008-.298.026-.315.303-.097 1.563-.199 3.127-.295 4.69-.064 1.038-.12 2.077-.184 3.114-.082 1.322-.159 2.645-.257 3.966-.101 1.352-1.326 2.511-2.689 2.52-2.388.017-4.777.017-7.165.001-1.417-.009-2.617-1.2-2.705-2.616-.1-1.606-.22-3.211-.327-4.817-.066-1.002-.12-2.005-.186-3.007-.077-1.172-.162-2.344-.242-3.516a3.79 3.79 0 0 1-.012-.363c.006-.194-.063-.287-.276-.277-.298.014-.599.011-.898-.001-.341-.015-.608-.224-.69-.515a.71.71 0 0 1 .259-.763.796.796 0 0 1 .503-.146c.742.002 1.483 0 2.225 0v-.002Zm4.425 1.443v-.007c-1.29 0-2.582.003-3.872-.004-.19-.001-.25.056-.237.246.073 1.059.14 2.118.204 3.177.088 1.45.173 2.9.257 4.351.077 1.337.15 2.674.225 4.011.045.793.602 1.377 1.352 1.38 2.368.007 4.735.006 7.102 0 .667-.002 1.208-.49 1.326-1.146.04-.22.032-.44.046-.66.07-1.059.137-2.118.203-3.177.048-.768.092-1.536.14-2.303.081-1.301.164-2.602.246-3.902.036-.562.061-1.124.112-1.685.018-.19-.023-.252-.217-.253-1.063-.005-2.125-.002-3.187-.022-1.233-.024-2.467-.006-3.7-.006Zm1.485-1.444c.612 0 1.224-.003 1.837.002.144.002.208-.04.202-.194-.01-.213.004-.427-.006-.64-.014-.291-.157-.428-.446-.43-1.06-.002-2.122-.002-3.183.001-.286 0-.428.141-.442.432-.01.2.006.4-.006.598-.01.174.047.238.228.235.605-.01 1.21-.004 1.816-.004Z" fill="#fff" fill-rule="evenodd" data-name="Path 102"/><path d="M905.046 363.869v3.635a.678.678 0 0 1-.367.631.653.653 0 0 1-.71-.027.684.684 0 0 1-.323-.613c.002-.592 0-1.183 0-1.775 0-1.831-.002-3.663.002-5.495.001-.549.544-.884 1.02-.634.263.138.38.364.38.665-.005 1.204-.002 2.409-.002 3.613Z" fill="#fff" fill-rule="evenodd" data-name="Path 103"/><path d="M907.784 363.869v3.634a.678.678 0 0 1-.367.632.652.652 0 0 1-.709-.026.683.683 0 0 1-.323-.614c.002-.57 0-1.14 0-1.71 0-1.853-.002-3.706.002-5.56 0-.557.561-.892 1.037-.625.252.142.363.364.362.655-.004 1.205-.002 2.41-.002 3.614Z" fill="#fff" fill-rule="evenodd" data-name="Path 104"/><path d="M909.124 363.86c0-1.219-.002-2.438.001-3.656.001-.31.177-.549.463-.652a.703.703 0 0 1 .76.193.674.674 0 0 1 .175.468c-.001 2.43 0 4.86-.002 7.291a.703.703 0 0 1-.692.723c-.39.005-.703-.314-.704-.733-.003-1.211-.001-2.423-.001-3.634Z" fill="#fff" fill-rule="evenodd" data-name="Path 105"/></g></svg>