<svg xmlns="http://www.w3.org/2000/svg" width="22.525" height="18.384" viewBox="1840 2123.913 22.525 18.384"><g data-name="Group 511"><path d="m1862.476 2126.123.05-.038v.044a.171.171 0 0 1-.04.005l-.01-.011Z" fill="#fff" fill-rule="evenodd" data-name="Path 143"/><path d="M1862.486 2126.134c-.295.512-.69.947-1.098 1.368a6.967 6.967 0 0 1-.998.867c-.132.092-.165.197-.162.35.052 3.284-.957 6.217-2.99 8.782-1.952 2.463-4.502 3.98-7.595 4.553-2.508.464-4.97.27-7.36-.648a12.394 12.394 0 0 1-2.108-1.046.806.806 0 0 1-.175-.14c2.464.202 4.694-.394 6.713-1.896-.316-.053-.592-.08-.858-.145-1.614-.399-2.719-1.384-3.341-2.921-.07-.17-.047-.213.141-.181.58.096 1.154.05 1.801-.088-.598-.163-1.1-.366-1.55-.677-1.31-.906-1.993-2.159-2.086-3.743-.013-.22.087-.168.206-.108a4.519 4.519 0 0 0 1.77.472c.017-.07-.034-.085-.066-.11-1.176-.899-1.792-2.097-1.863-3.565-.04-.837.168-1.628.56-2.37.096-.18.15-.062.21.01a12.732 12.732 0 0 0 1.7 1.695c1.753 1.443 3.74 2.385 5.976 2.797.491.09.986.145 1.484.19.233.022.234-.059.205-.23-.141-.852-.076-1.688.257-2.486.686-1.64 1.908-2.636 3.673-2.897 1.496-.22 2.798.237 3.891 1.28.106.1.195.115.33.084a9.516 9.516 0 0 0 2.5-.947c.066-.037.15-.127.207-.075.057.053-.02.15-.048.222a4.595 4.595 0 0 1-1.661 2.12c-.047.032-.094.065-.197.139.52-.063.964-.158 1.399-.291.377-.116.749-.25 1.123-.376l.01.01Z" fill="#fff" fill-rule="evenodd" data-name="Path 144"/></g></svg>