<svg xmlns="http://www.w3.org/2000/svg" width="20" height="20"><path d="M5.468 2.327c.374 0 .749-.007 1.123.003a.55.55 0 0 0 .45-.186c.459-.485.922-.965 1.39-1.44.924-.934 2.197-.938 3.124-.016.485.483.97.963 1.448 1.452.13.133.264.193.45.19.708-.008 1.416-.006 2.124-.002 1.185.005 2.09.904 2.096 2.085.004.724.007 1.449-.002 2.173a.585.585 0 0 0 .2.47c.485.457.965.92 1.439 1.39.919.912.92 2.186.006 3.106-.487.492-.974.982-1.469 1.466a.548.548 0 0 0-.176.431c.007.716.006 1.432.002 2.148a2.064 2.064 0 0 1-2.08 2.078c-.716.003-1.432.005-2.148-.002a.548.548 0 0 0-.43.177c-.49.5-.986.994-1.483 1.487-.896.887-2.182.885-3.071-.01-.488-.491-.966-.99-1.443-1.491a.49.49 0 0 0-.387-.163c-.74.006-1.48.005-2.221.002A2.064 2.064 0 0 1 2.327 15.6c-.004-.7-.01-1.4.003-2.099a.667.667 0 0 0-.226-.534c-.485-.469-.96-.95-1.435-1.43-.898-.907-.892-2.189.019-3.088a76.91 76.91 0 0 1 1.44-1.39.607.607 0 0 0 .201-.494c-.01-.716-.006-1.432-.003-2.148.006-1.182.91-2.083 2.092-2.09.35-.002.7 0 1.05 0Zm3.767 10.26c.308.004.554-.1.76-.307l3.108-3.108a.915.915 0 0 0 .217-.321c.19-.5.029-1.027-.406-1.31-.419-.273-.957-.205-1.339.175-.72.718-1.438 1.44-2.156 2.16-.258.257-.252.252-.5-.022-.235-.259-.46-.532-.76-.719-.454-.283-.993-.19-1.343.219-.312.366-.326.953.011 1.299.561.577 1.123 1.156 1.727 1.69a.96.96 0 0 0 .681.244Z" fill="#2d5ee8" fill-rule="evenodd" data-name="Path 125"/></svg>