<svg xmlns="http://www.w3.org/2000/svg" width="10.018" height="10.02"><path d="M10.018 5.017a4.998 4.998 0 0 1-5.012 5.003A4.989 4.989 0 0 1 0 4.997C.004 2.184 2.292-.006 5.02 0c2.766.006 5 2.246 4.998 5.017Zm-5.005-3.46c-.122.002-.245-.009-.363.045-.287.13-.473.485-.422.836.186 1.26.375 2.521.564 3.782.028.188.102.283.218.285.115.003.197-.098.224-.28.184-1.233.368-2.466.548-3.7.083-.568-.226-1.034-.769-.968ZM5.01 7.453a.504.504 0 0 0-.502.512c.002.281.23.505.511.502.266-.002.501-.24.502-.505a.522.522 0 0 0-.51-.509Z" fill="#f4aa1c" fill-rule="evenodd" data-name="Path 110"/></svg>