<svg xmlns="http://www.w3.org/2000/svg" width="138.027" height="169" viewBox="890.987 458.5 138.027 169"><g data-name="Group 382"><path d="M1014.072 627.5h-98.939c-.208-.068-.414-.149-.626-.202-8.565-2.172-13.56-8.084-14.385-16.917-.21-2.254-.145-4.502-.148-6.753 0-1.186-.409-1.791-1.639-2.004-5.273-.912-7.327-3.394-7.332-8.772-.008-9.069-.003-18.137-.002-27.206 0-4.947-.042-9.894.02-14.84.05-4.177 2.749-7.394 6.4-7.805 2.535-.285 2.54-.285 2.54-2.799 0-19.951-.004-39.903.008-59.854.001-1.59.071-3.185.192-4.771.764-10 8.304-17.035 18.31-17.044 21.875-.018 43.75.006 65.625-.033 1.498-.003 2.567.465 3.618 1.514 13.027 13.01 26.071 26.005 39.175 38.938 1.485 1.465 2.132 2.93 2.125 5.037-.072 20.94-.044 41.881-.044 62.822 0 14.07.015 28.141-.01 42.211-.01 4.732-1.481 8.944-4.643 12.543-2.758 3.14-6.287 4.895-10.245 5.935Zm-49.624-11.267c15.168 0 30.335.009 45.503-.005 4.736-.004 7.32-2.479 7.61-7.212.033-.547.026-1.099.02-1.648-.066-4.833-.187-9.667-.196-14.5-.052-28.192-.078-56.384-.113-84.575-.004-2.454-.016-2.467-2.497-2.465-6.375.007-12.75.03-19.124.026-2.27-.001-4.51-.286-6.575-1.29-5.03-2.447-7.308-6.652-7.373-12.092-.082-6.868-.044-13.738-.005-20.608.008-1.357-.367-2.003-1.856-2-20.553.044-41.106.036-61.659.076-3.19.006-5.747 1.999-6.422 4.913-.22.95-.216 1.963-.217 2.948-.011 20.882-.01 41.765-.008 62.648 0 2.501.008 2.504 2.61 2.505 27.588 0 55.175-.003 82.762.005 5.078.002 8.004 2.904 8.024 7.965.025 6.815.008 13.63.007 20.444 0 7.528.022 15.057-.012 22.586-.02 4.284-2.65 7.17-6.87 7.62-1.2.127-2.411.187-3.617.188-26.433.01-52.866.008-79.3.008-.549 0-1.1.037-1.647-.004-1.387-.103-2.024.456-1.972 1.905.072 1.976-.02 3.957.04 5.934.116 3.913 2.782 6.514 6.726 6.618.714.018 1.428.01 2.143.01 14.673.002 29.345.001 44.018 0Zm-27.768-43.192c0 4.39.025 8.78-.017 13.17-.012 1.287.407 1.922 1.777 1.958 3.34.089 6.67.28 10.018-.002 8.309-.7 13.491-5.143 14.567-13.054 1.172-8.611-2.51-15.392-11.986-16.84-4.194-.64-8.417-.405-12.635-.023-1.359.123-1.763.654-1.746 1.95.055 4.28.02 8.56.022 12.841Zm-26.148.223c0 3.515-.028 7.029.007 10.543.05 4.989-.724 4.263 4.566 4.347 1.198.018 1.694-.464 1.679-1.653-.031-2.415.038-4.833-.015-7.247-.033-1.465.494-2.103 2.03-1.988 2.553.192 5.04-.21 7.402-1.229 3.998-1.724 6.024-5.28 5.63-9.833-.346-4-3.039-6.982-7.294-7.826-4.076-.81-8.192-.47-12.3-.162-1.376.104-1.731.782-1.719 2.035.043 4.338.017 8.676.014 13.013Zm57.734-.157c0 3.459-.034 6.918.008 10.376.065 5.435-.824 4.557 4.725 4.675 1.275.028 1.772-.435 1.741-1.724-.061-2.578-.019-5.16-.015-7.74.003-2.76.005-2.761 2.685-2.766 1.537-.003 3.075.016 4.611-.004 3.91-.051 3.589.64 3.613-3.785.005-1.101-.393-1.624-1.543-1.584-1.37.048-2.744.008-4.116.008-5.396 0-5.352 0-5.277-5.47.02-1.461.601-1.936 1.964-1.913 2.524.043 5.052-.053 7.575.029 1.56.05 2.268-.518 2.101-2.102a6.96 6.96 0 0 1-.002-1.316c.12-1.381-.54-1.807-1.86-1.794-4.776.05-9.553.06-14.328-.005-1.457-.019-1.918.542-1.9 1.94.055 4.391.02 8.784.018 13.175Z" fill="#929292" fill-rule="evenodd" data-name="Path 120"/><path d="M943.156 573.08c-.001-2.741.035-5.483-.016-8.223-.027-1.452.555-2.155 2.03-2.088 1.149.052 2.32-.058 3.445.126 6.02.99 7.706 5.162 7.682 10.14-.006 1.463-.233 2.947-.759 4.355-1.607 4.302-6.662 6.962-11.26 5.96-1.023-.223-1.113-.923-1.116-1.719-.01-2.85-.004-5.7-.006-8.551Z" fill="#929292" fill-rule="evenodd" data-name="Path 121"/><path d="M916.78 567.495c0-.604-.001-1.208.001-1.813.01-2.843.282-3.11 3.11-3.06 3.998.072 6.21 2.455 5.434 5.856-.66 2.895-4.94 4.975-7.71 3.783-.707-.305-.789-.868-.806-1.471-.033-1.097-.01-2.197-.01-3.295h-.018Z" fill="#929292" fill-rule="evenodd" data-name="Path 122"/></g></svg>